<svg version="1.1" id="svg24" xmlns="http://www.w3.org/2000/svg" x="0" y="0" viewBox="0 0 2500 595.1" style="enable-background:new 0 0 2500 595.1" xml:space="preserve"><style>.st0{fill:#044884}</style><path id="path2" class="st0" d="M1629.2 282c0-153.6-91.4-281.1-270.9-281.1-162.2 0-284.8 127.6-284.8 305.3 0 175.9 122.6 288.9 290 288.9 140.7 0 234.7-77.6 263.2-205.2l-88.9-10.3c-23.4 86.2-78.5 131.1-172.7 131.9-100.9 0-179.4-77.6-184.6-187.1h448.6l.1-42.4zm-446.1-27.6c13-93.2 73.4-172.5 175.2-172.5 107 0 157.9 81.9 161.3 172.5h-336.5zM555.7 282C555.7 128.4 464.2.9 284.8.9 122.6.9 0 128.5 0 306.2c0 175.9 122.6 288.9 290 288.9 140.7 0 234.7-77.6 263.2-205.2l-89-10.3c-23.3 86.2-78.4 131.1-172.6 131.9-100.9 0-179.4-77.6-184.7-187.1h448.8V282zm-446.1-27.6c13-93.2 73.4-172.5 175.2-172.5 107 0 157.9 81.9 161.3 172.5H109.6zM862.1 0c-83.7 0-159.6 47.4-187.2 115.6V14.7h-107V578h107l.9-322.6c0-103.5 67.3-169.9 151.8-169.9 88.9 0 133.8 59.5 133.8 153.6v339.8h107V229.4C1068.3 98.3 1008.8 0 862.1 0z"/><path id="path4" class="st0" d="M2500 229.4v349.3h-107.1V238.9c0-94.1-38.8-153.6-125.1-153.6-79.4 0-144.1 66.5-144.1 169.9v323.4h-107V238.9c0-94.1-38.9-153.6-125.2-153.6-80.2 0-143.2 66.5-143.2 169.9v323.4h-107V15.5h107v100.9C1776 48.4 1841.6.9 1927.9.9c100.9 0 160.4 49.2 184.6 122.4C2141.9 53.5 2211.8.9 2301.5 0 2448.2 0 2500 101.8 2500 229.4z"/></svg>